<?xml version="1.0" encoding="UTF-8" standalone="no"?>
<!-- Created with Inkscape (http://www.inkscape.org/) -->

<svg
   xmlns:dc="http://purl.org/dc/elements/1.1/"
   xmlns:cc="http://creativecommons.org/ns#"
   xmlns:rdf="http://www.w3.org/1999/02/22-rdf-syntax-ns#"
   xmlns:svg="http://www.w3.org/2000/svg"
   xmlns="http://www.w3.org/2000/svg"
   xmlns:sodipodi="http://sodipodi.sourceforge.net/DTD/sodipodi-0.dtd"
   xmlns:inkscape="http://www.inkscape.org/namespaces/inkscape"
   width="48"
   height="48"
   id="svg2985"
   version="1.1"
   inkscape:version="0.92.1 r"
   sodipodi:docname="fcitx-chewing.svg"
   inkscape:export-filename="/home/lotem/code/rime/artworks/zhung.png"
   inkscape:export-xdpi="90"
   inkscape:export-ydpi="90">
  <defs
     id="defs2987" />
  <sodipodi:namedview
     id="base"
     pagecolor="#ffffff"
     bordercolor="#666666"
     borderopacity="1.0"
     inkscape:pageopacity="0.0"
     inkscape:pageshadow="2"
     inkscape:zoom="7.0471596"
     inkscape:cx="18.574058"
     inkscape:cy="31.95431"
     inkscape:current-layer="g3786"
     showgrid="true"
     inkscape:document-units="px"
     inkscape:grid-bbox="true"
     inkscape:window-width="1402"
     inkscape:window-height="905"
     inkscape:window-x="350"
     inkscape:window-y="119"
     inkscape:window-maximized="0" />
  <metadata
     id="metadata2990">
    <rdf:RDF>
      <cc:Work
         rdf:about="">
        <dc:format>image/svg+xml</dc:format>
        <dc:type
           rdf:resource="http://purl.org/dc/dcmitype/StillImage" />
        <dc:title />
      </cc:Work>
    </rdf:RDF>
  </metadata>
  <g
     id="layer1"
     inkscape:label="Layer 1"
     inkscape:groupmode="layer"
     transform="translate(0,-16)">
    <g
       id="g3786"
       transform="matrix(0.7095449,0,0,0.7095449,1.1715576,17.166707)">
      <path
         style="opacity:1;fill:#bebebe;fill-opacity:1;fill-rule:nonzero;stroke:none;stroke-width:0.35477245;stroke-linecap:round;stroke-linejoin:round;stroke-miterlimit:4;stroke-dasharray:none;stroke-dashoffset:0;stroke-opacity:1"
         d="M 8.9707031 -0.16210938 C 4.299788 -0.16210938 0.5390625 3.596662 0.5390625 8.2675781 L 0.5390625 39.712891 C 0.5390625 44.383808 4.299788 48.144531 8.9707031 48.144531 L 39.490234 48.144531 C 44.16115 48.144531 47.919922 44.383808 47.919922 39.712891 L 47.919922 8.2675781 C 47.919922 3.596662 44.16115 -0.16210938 39.490234 -0.16210938 L 8.9707031 -0.16210938 z M 30.259766 4.9277344 C 31.480922 6.8408792 32.906689 9.4879574 33.476562 11.238281 L 29.527344 12.662109 L 41.943359 12.662109 L 41.943359 17.261719 L 32.703125 17.261719 L 32.703125 24.425781 L 40.478516 24.425781 L 40.478516 29.025391 L 32.703125 29.025391 L 32.703125 37.330078 L 43.001953 37.330078 L 43.001953 41.929688 L 16.583984 41.929688 L 16.583984 37.330078 L 27.65625 37.330078 L 27.65625 29.025391 L 19.433594 29.025391 L 19.433594 24.425781 L 27.65625 24.425781 L 27.65625 17.261719 L 17.804688 17.261719 L 17.804688 12.662109 L 28.632812 12.662109 C 28.14435 10.95249 26.922949 8.3874437 25.783203 6.4335938 L 30.259766 4.9277344 z M 10.070312 5.5800781 C 12.512625 6.6384136 16.013348 8.4295445 17.763672 9.6914062 L 14.955078 13.638672 C 13.32687 12.336105 9.8677837 10.382955 7.3847656 9.1210938 L 10.070312 5.5800781 z M 7.7089844 16.814453 C 10.110592 17.872789 13.611315 19.581579 15.402344 20.802734 L 12.716797 24.833984 C 11.088589 23.572123 7.627549 21.658657 5.1445312 20.4375 L 7.7089844 16.814453 z M 13.896484 26.746094 L 17.478516 29.962891 C 15.321139 34.236938 12.756455 38.875814 10.273438 42.824219 L 6.203125 39.568359 C 8.3605014 36.474763 11.494877 31.427193 13.896484 26.746094 z "
         transform="matrix(1.4093541,0,0,1.4093541,-1.6511395,-1.6443033)"
         id="rect4217" />
      <g
         aria-label="注"
         style="font-style:normal;font-weight:normal;line-height:0%;font-family:sans-serif;letter-spacing:0px;word-spacing:0px;fill:#434343;fill-opacity:1;stroke:none;stroke-width:1px;stroke-linecap:butt;stroke-linejoin:miter;stroke-opacity:1"
         id="text4219" />
    </g>
  </g>
</svg>
